<?xml version="1.0" encoding="UTF-8" standalone="no"?>
<!-- Generator: Adobe Illustrator 15.1.0, SVG Export Plug-In  -->

<svg
   xmlns:dc="http://purl.org/dc/elements/1.1/"
   xmlns:cc="http://creativecommons.org/ns#"
   xmlns:rdf="http://www.w3.org/1999/02/22-rdf-syntax-ns#"
   xmlns:svg="http://www.w3.org/2000/svg"
   xmlns="http://www.w3.org/2000/svg"
   xmlns:sodipodi="http://sodipodi.sourceforge.net/DTD/sodipodi-0.dtd"
   xmlns:inkscape="http://www.inkscape.org/namespaces/inkscape"
   version="1.1"
   x="0px"
   y="0px"
   width="222.093"
   height="158.94701"
   viewBox="0 0 222.093 158.94701"
   enable-background="new 0 0 443 188"
   xml:space="preserve"
   id="svg2"
   inkscape:version="0.91 r13725"
   sodipodi:docname="upec-logo.svg"><metadata
     id="metadata134"><rdf:RDF><cc:Work
         rdf:about=""><dc:format>image/svg+xml</dc:format><dc:type
           rdf:resource="http://purl.org/dc/dcmitype/StillImage" /><dc:title></dc:title></cc:Work></rdf:RDF></metadata><sodipodi:namedview
     pagecolor="#ffffff"
     bordercolor="#666666"
     borderopacity="1"
     objecttolerance="10"
     gridtolerance="10"
     guidetolerance="10"
     inkscape:pageopacity="0"
     inkscape:pageshadow="2"
     inkscape:window-width="1920"
     inkscape:window-height="1017"
     id="namedview132"
     showgrid="false"
     fit-margin-top="0"
     fit-margin-left="0"
     fit-margin-right="0"
     fit-margin-bottom="0"
     inkscape:zoom="2.7781109"
     inkscape:cx="125.93127"
     inkscape:cy="70.16589"
     inkscape:window-x="-8"
     inkscape:window-y="-8"
     inkscape:window-maximized="1"
     inkscape:current-layer="svg2" /><defs
     id="defs4" /><path
     inkscape:connector-curvature="0"
     d="m 65.322004,98.311001 24.353,0 C 103.901,98.311001 112.505,106.747 112.505,118.922 l 0,0.166 c 0,13.803 -10.735,20.949 -24.103996,20.949 l -9.961,0 0,17.889 -13.118,0 0,-59.614999 z m 23.507,30.063999 c 6.555,0 10.386,-3.92 10.386,-9.031 l 0,-0.17 c 0,-5.875 -4.087,-9.023 -10.648,-9.023 l -10.128,0 0,18.225 10.39,0 z"
     id="path120" /><path
     inkscape:connector-curvature="0"
     d="m 118.315,98.311001 44.962,0 0,11.669999 -31.932,0 0,12.092 28.103,0 0,11.674 -28.103,0 0,12.518 32.361,0 0,11.662 -45.391,0 0,-59.615999 z"
     id="path122" /><path
     inkscape:connector-curvature="0"
     d="m 167.072,128.289 0,-0.176 c 0,-16.938 12.78,-30.815999 31.091,-30.815999 11.242,0 17.972,3.741999 23.504,9.187999 l -8.347,9.625 c -4.597,-4.176 -9.28,-6.725 -15.245,-6.725 -10.045,0 -17.289,8.342 -17.289,18.563 l 0,0.166 c 0,10.221 7.066,18.74 17.289,18.74 6.814,0 10.989,-2.727 15.672,-6.986 l 8.346,8.436 c -6.129,6.557 -12.95,10.643 -24.442,10.643 -17.537,-0.002 -30.579,-13.543 -30.579,-30.658 z"
     id="path124" /><path
     inkscape:connector-curvature="0"
     d="m 38.835004,132.459 c 0,9.459 -4.854,14.313 -12.86,14.313 -8.006,0 -12.858,-5.025 -12.858,-14.736 l 0,-33.724999 L 0,98.311001 0,132.381 c 0,17.539 9.796004,26.48 25.806004,26.48 16.008,0 26.143,-8.859 26.143,-26.914 l 0.106,-40.838 -13.219,4.504001 0,36.845999 z"
     id="path126" /><polygon
     style="fill:#e62733"
     points="220.728,0 52.069,56.688 52.069,90.199 52.09,91.041 220.728,34.391 "
     id="polygon128" /></svg>